<?xml version="1.0" encoding="iso-8859-1"?>
<!-- Generator: Adobe Illustrator 16.0.3, SVG Export Plug-In . SVG Version: 6.00 Build 0)  -->
<!DOCTYPE svg PUBLIC "-//W3C//DTD SVG 1.1//EN" "http://www.w3.org/Graphics/SVG/1.1/DTD/svg11.dtd">
<svg version="1.1" xmlns="http://www.w3.org/2000/svg" xmlns:xlink="http://www.w3.org/1999/xlink" x="0px" y="0px" width="1280px"
	 height="800px" viewBox="0 0 1280 800" style="enable-background:new 0 0 1280 800;" xml:space="preserve">
<g id="Layer_1">
	<g>
		<path style="fill-rule:evenodd;clip-rule:evenodd;fill:#CCCCCC;" d="M423.09,531.931c-18.602,9.906-35.97,15.07-54.281,5.471
			c-2.667-1.396-6.271-5.182-5.997-7.441c4.272-35.307,9.051-70.557,14.092-105.764c0.167-1.16,5.02-3.07,6.482-2.303
			c2.581,1.354,6.011,4.512,6.002,6.9c-0.11,27.396-0.214,54.822-1.64,82.17c-0.544,10.432,2.958,14.313,12.512,15.609
			C407.564,527.563,414.687,529.901,423.09,531.931z"/>
		<path style="fill-rule:evenodd;clip-rule:evenodd;fill:#CCCCCC;" d="M555.177,369.237c-41.356-11.418-78.655-8.029-112.736,28.34
			c9.37-2.647,14.784-4.178,17.229-4.869c-0.841,12.889-1.694,25.936-2.693,41.25c-11.018-6.264-24.076-13.588-36.915-21.285
			c-0.62-0.369,0.386-4.119,1.14-6.1c15.542-40.754,65.856-60.527,114.716-44.975C542.481,363.688,548.765,366.668,555.177,369.237z
			"/>
		<path style="fill-rule:evenodd;clip-rule:evenodd;fill:#CCCCCC;" d="M466.489,604.692c-31.719,0-63.438,0.105-95.154-0.178
			c-2.821-0.023-8.009-2.525-8.033-3.943c-0.122-7.531,1.053-15.082,1.779-22.625c3.727,1.152,8.502,1.215,10.999,3.645
			c10.652,10.373,19.951,10.055,30.204-0.76c2.254-2.377,8.848-2.918,12.247-1.467c16.433,7.016,32.458,15,48.627,22.643
			C466.934,602.901,466.712,603.798,466.489,604.692z"/>
		<path style="fill-rule:evenodd;clip-rule:evenodd;fill:#CCCCCC;" d="M450.874,615.108c-21.555,10.098-38.252,18.385-55.348,25.725
			c-8.05,3.457-33.919-12.545-33.008-19.818c0.269-2.135,3.069-5.631,4.748-5.654C393.385,615.001,419.511,615.108,450.874,615.108z
			"/>
		<path style="fill-rule:evenodd;clip-rule:evenodd;fill:#CCCCCC;stroke:#E6E6E6;stroke-miterlimit:10;" d="M482.479,437.913
			c-5.269-7.865-13.621-15.199-15.075-23.727c-2.106-12.354,6.982-20.393,19.518-20.458c12.48-0.064,21.839,8.038,20.214,20.124
			c-1.146,8.518-9.784,16.018-15.077,23.973C488.867,437.853,485.674,437.884,482.479,437.913z"/>
		<path style="fill-rule:evenodd;clip-rule:evenodd;fill:#CCCCCC;" d="M516.562,434.079c-0.796-14.855-1.513-28.203-2.287-42.655
			c9.536,5.405,21.621,12.157,33.519,19.224c0.776,0.461,0.806,4.479,0.037,4.953C536.786,422.382,525.543,428.839,516.562,434.079z
			"/>
	</g>
	<path style="fill-rule:evenodd;clip-rule:evenodd;fill:none;stroke:#CCCCCC;stroke-width:14;stroke-miterlimit:10;" d="
		M187.325,373.554c36.241-85.62,117.091-145.22,211.015-145.22c127.765,0,231.339,110.287,231.339,246.334
		c0,136.045-103.574,246.333-231.339,246.333C270.574,721.001,167,610.713,167,474.668C167,438.633,174.267,404.404,187.325,373.554
		"/>
	
		<rect x="375.5" y="113.5" style="fill-rule:evenodd;clip-rule:evenodd;fill:#CCCCCC;stroke:#CCCCCC;stroke-width:3;stroke-miterlimit:10;" width="13" height="110"/>
	
		<rect x="467.282" y="111.994" transform="matrix(0.9602 0.2793 -0.2793 0.9602 67.2893 -125.4432)" style="fill-rule:evenodd;clip-rule:evenodd;fill:#CCCCCC;stroke:#CCCCCC;stroke-width:3;stroke-miterlimit:10;" width="13" height="122.76"/>
	
		<rect x="556.369" y="101.376" transform="matrix(0.8643 0.5029 -0.5029 0.8643 170.0737 -257.7864)" style="fill-rule:evenodd;clip-rule:evenodd;fill:#CCCCCC;stroke:#CCCCCC;stroke-width:3;stroke-miterlimit:10;" width="13" height="169.958"/>
	
		<rect x="603.205" y="186.478" transform="matrix(0.702 0.7122 -0.7122 0.702 360.4045 -359.4656)" style="fill-rule:evenodd;clip-rule:evenodd;fill:#CCCCCC;stroke:#CCCCCC;stroke-width:3;stroke-miterlimit:10;" width="13" height="128.828"/>
	
		<rect x="722.635" y="132.552" transform="matrix(0.4738 0.8806 -0.8806 0.4738 629.4879 -495.2069)" style="fill-rule:evenodd;clip-rule:evenodd;fill:#CCCCCC;stroke:#CCCCCC;stroke-width:3;stroke-miterlimit:10;" width="12.999" height="293.204"/>
	
		<rect x="680.205" y="321.478" transform="matrix(0.2575 0.9663 -0.9663 0.2575 882.782 -377.0169)" style="fill-rule:evenodd;clip-rule:evenodd;fill:#CCCCCC;stroke:#CCCCCC;stroke-width:3;stroke-miterlimit:10;" width="13" height="128.828"/>
	
		<rect x="753.328" y="326.311" transform="matrix(5.633394e-004 1 -1 5.633394e-004 1216.2484 -303.2384)" style="fill-rule:evenodd;clip-rule:evenodd;fill:#CCCCCC;stroke:#CCCCCC;stroke-width:3;stroke-miterlimit:10;" width="13.002" height="261.074"/>
	
		<rect x="680.204" y="470.478" transform="matrix(-0.2525 0.9676 -0.9676 -0.2525 1377.6616 5.5052)" style="fill-rule:evenodd;clip-rule:evenodd;fill:#CCCCCC;stroke:#CCCCCC;stroke-width:3;stroke-miterlimit:10;" width="13" height="128.827"/>
	
		<rect x="746.422" y="477.821" transform="matrix(-0.4352 0.9003 -0.9003 -0.4352 1651.4052 232.0295)" style="fill-rule:evenodd;clip-rule:evenodd;fill:#CCCCCC;stroke:#CCCCCC;stroke-width:3;stroke-miterlimit:10;" width="13.002" height="312.37"/>
	
		<rect x="628.57" y="590.548" transform="matrix(-0.51 0.8601 -0.8601 -0.51 1518.7139 436.3848)" style="fill-rule:evenodd;clip-rule:evenodd;fill:#CCCCCC;stroke:#CCCCCC;stroke-width:3;stroke-miterlimit:10;" width="13" height="120.378"/>
	
		<rect x="554.57" y="664.548" transform="matrix(-0.8323 0.5543 -0.5543 -0.8323 1429.7864 1016.9268)" style="fill-rule:evenodd;clip-rule:evenodd;fill:#CCCCCC;stroke:#CCCCCC;stroke-width:3;stroke-miterlimit:10;" width="13" height="120.378"/>
	
		<rect x="457.914" y="710.104" transform="matrix(-0.9803 0.1975 -0.1975 -0.9803 1066.2612 1378.1102)" style="fill-rule:evenodd;clip-rule:evenodd;fill:#CCCCCC;stroke:#CCCCCC;stroke-width:3;stroke-miterlimit:10;" width="13" height="64.236"/>
	
		<rect x="374.968" y="717.104" transform="matrix(-0.9999 -0.0157 0.0157 -0.9999 751.1823 1497.3356)" style="fill-rule:evenodd;clip-rule:evenodd;fill:#CCCCCC;stroke:#CCCCCC;stroke-width:3;stroke-miterlimit:10;" width="13" height="57.23"/>
	
		<rect x="27" y="169" style="fill-rule:evenodd;clip-rule:evenodd;fill:#FFFFFF;stroke:#FFFFFF;stroke-width:14;stroke-miterlimit:10;" width="327" height="605"/>
</g>
<g id="Layer_2">
</g>
</svg>
