<?xml version="1.0" encoding="iso-8859-1"?>
<!-- Generator: Adobe Illustrator 16.0.3, SVG Export Plug-In . SVG Version: 6.00 Build 0)  -->
<!DOCTYPE svg PUBLIC "-//W3C//DTD SVG 1.1//EN" "http://www.w3.org/Graphics/SVG/1.1/DTD/svg11.dtd">
<svg version="1.1" id="Layer_1" xmlns="http://www.w3.org/2000/svg" xmlns:xlink="http://www.w3.org/1999/xlink" x="0px" y="0px"
	 width="1280px" height="800px" viewBox="0 0 1280 800" style="enable-background:new 0 0 1280 800;" xml:space="preserve">
<g>
	<path style="fill-rule:evenodd;clip-rule:evenodd;fill:#FFFFFF;" d="M385.814,796.254c-13.495,2.839-16.364-2.424-16.337-15.867
		c0.495-256.843,0.347-513.685,0.654-770.527c0.002-2.457,4.353-7.053,6.677-7.056c261.589-0.324,523.177-0.322,784.766-0.026
		c2.277,0.002,6.538,4.192,6.539,6.431c0.298,260.017,0.3,520.036-0.02,780.049c-0.004,2.335-4.582,6.703-7.033,6.709
		c-178.025,0.316-356.054,0.288-534.083,0.288c-21.563-31.785-43.265-63.479-64.413-95.537c-1.595-2.416-0.651-8.731,1.499-10.976
		c12.438-12.985,25.312-25.601,38.736-37.568c2.751-2.453,9.656-3.688,12.626-1.991c27.438,15.68,54.346,32.277,81.704,48.102
		c2.434,1.408,6.957-0.755,10.509-1.259c-0.946-3.571-0.726-9-3.02-10.425c-26.619-16.532-53.722-32.285-80.329-48.83
		c-2.336-1.454-3.959-7.883-2.716-10.504c5.084-10.727,10.927-21.189,17.596-31.008c1.806-2.659,8.568-4.917,11.251-3.635
		c81.008,38.735,161.782,77.949,242.608,117.055c13.219,6.396,26.515,12.634,39.774,18.943c1.422-1.306,2.844-2.61,4.267-3.916
		c-3.831-5.132-6.533-12.538-11.664-15.055c-83.451-40.964-166.866-82.035-251.154-121.257
		c-20.063-9.338-30.373-18.39-18.043-39.494c2.133-3.648,8.938-7.908,12.298-7.029c34.7,9.082,69.094,19.316,103.734,28.631
		c2.33,0.627,6.683-3.089,8.652-5.815c0.765-1.057-1.946-6.729-3.965-7.323c-33.378-9.838-66.739-19.818-100.472-28.341
		c-11.874-2.999-16.339-6.893-13.444-19.539c2.204-9.633,0.521-20.095,1.998-29.977c0.482-3.234,5.445-8.307,8.382-8.319
		c84.109-0.427,168.22-0.24,252.327-0.604c2.908-0.014,5.794-4.66,8.69-7.147c-2.887-2.238-5.766-6.418-8.662-6.43
		c-75.857-0.318-151.716-0.201-227.573-0.166c-32.828,0.014-32.824,0.002-39.911-31.385c-0.29-1.288-1.433-2.877-0.999-3.74
		c1.488-2.967,3-7.565,5.39-8.189c38.563-10.083,77.302-19.496,115.836-29.685c2.481-0.656,3.599-6.401,5.35-9.779
		c-2.811-1.364-6.029-4.398-8.379-3.836c-33.59,8.036-67.329,15.66-100.457,25.337c-16.809,4.912-27.96,5.169-31.604-15.155
		c-1.079-6.015-6.271-11.253-7.643-17.283c-0.79-3.461,1.131-10.029,3.813-11.417c86.354-44.655,172.983-88.777,259.358-133.384
		c3.212-1.659,4.308-7.368,6.387-11.19c-4.24-0.561-9.444-2.998-12.586-1.409c-83.179,42.12-166.348,84.274-248.963,127.472
		c-14.523,7.594-23.848,10.032-31.911-7.041c-3.397-7.194-10.719-12.465-15.039-19.365c-1.666-2.66-1.525-8.999,0.475-10.976
		c29.265-28.893,59.087-57.228,88.355-86.119c1.855-1.833,0.23-7.148,0.225-10.844c-3.504,0.2-8.349-1.018-10.307,0.816
		c-22.665,21.214-44.896,42.885-67.234,64.442c-27.424,26.463-27.495,26.559-57.293,2.768c-1.933-1.543-3.01-7.087-1.768-9.173
		c17.061-28.67,34.625-57.045,52.017-85.522c12.581-20.598,25.086-41.241,37.626-61.864c-1.454-1.539-2.905-3.078-4.357-4.618
		c-6.201,4.674-14.409,8.094-18.271,14.223c-25.566,40.548-50.642,81.419-74.831,122.791c-6.373,10.9-11.092,13.161-22.03,6.03
		c-8.977-5.853-20.092-8.375-29.623-13.536c-3.06-1.657-6.477-7.661-5.683-10.595c10.325-38.208,21.378-76.221,32.248-114.283
		c-1.541-1.396-3.08-2.792-4.62-4.188c-4.488,4.489-11.404,8.232-13.067,13.587c-10.509,33.827-19.699,68.056-29.896,101.982
		c-0.736,2.456-6.163,5.301-9.128,5.019c-17.159-1.629-34.3-3.763-51.277-6.697c-3.217-0.556-8.058-5.434-8.113-8.391
		c-0.592-31.474-0.2-62.964-0.669-94.441c-0.042-2.75-4.274-5.438-6.559-8.155c-2.569,2.791-7.327,5.544-7.375,8.376
		c-0.537,31.74-0.163,63.495-0.658,95.236c-0.047,2.999-4.4,5.876-6.616,8.909c-2.165,2.963-4.813,5.86-5.804,9.208
		c-0.282,0.953,4.392,4.757,6.936,4.913c20.657,1.265,41.638,0.077,61.976,3.17c103.755,15.781,185.675,97.24,204.75,202.156
		c18.058,99.323-30.873,204.582-118.684,255.494c-45.219,26.217-93.78,37.756-146.091,33.775c-2.876-0.223-7.458,2.126-8.591,4.521
		c-1.062,2.243,1.344,8.868,2.324,8.889c12.164,0.263,10.148,8.554,10.138,16.104C385.326,771.949,385.641,784.103,385.814,796.254z
		 M436.813,544.411c-8.949-2.134-16.534-4.593-24.31-5.635c-10.174-1.364-13.903-5.444-13.324-16.414
		c1.518-28.76,1.628-57.602,1.746-86.412c0.009-2.512-3.643-5.832-6.392-7.257c-1.557-0.806-6.726,1.203-6.903,2.423
		c-5.368,37.024-10.457,74.093-15.007,111.223c-0.293,2.376,3.546,6.355,6.386,7.825
		C398.509,560.259,417.004,554.828,436.813,544.411z M577.471,373.319c-6.829-2.701-13.52-5.835-20.509-8.033
		c-52.03-16.355-105.608,4.439-122.16,47.298c-0.803,2.082-1.875,6.024-1.214,6.414c13.672,8.094,27.578,15.796,39.31,22.383
		c1.064-16.104,1.972-29.824,2.868-43.379c-2.603,0.727-8.369,2.336-18.346,5.12C493.712,364.875,533.432,361.312,577.471,373.319z
		 M483.028,620.929c0.237-0.94,0.474-1.885,0.712-2.825c-17.219-8.036-34.284-16.433-51.783-23.812
		c-3.619-1.526-10.641-0.956-13.041,1.543c-10.919,11.373-20.82,11.707-32.164,0.799c-2.659-2.555-7.744-2.62-11.713-3.833
		c-0.773,7.934-2.024,15.873-1.894,23.793c0.025,1.491,5.55,4.123,8.554,4.146C415.473,621.039,449.25,620.929,483.028,620.929z
		 M466.399,631.881c-33.397,0-61.219-0.111-89.034,0.267c-1.788,0.023-4.77,3.7-5.057,5.944c-0.97,7.65,26.578,24.479,35.15,20.843
		C425.665,651.215,443.446,642.501,466.399,631.881z M500.056,445.541c3.402-0.031,6.802-0.063,10.203-0.093
		c5.636-8.366,14.834-16.253,16.055-25.21c1.729-12.71-8.236-21.231-21.526-21.163c-13.35,0.068-23.028,8.522-20.785,21.515
		C485.551,429.557,494.445,437.27,500.056,445.541z M536.35,441.509c9.563-5.512,21.536-12.302,33.298-19.433
		c0.819-0.498,0.788-4.724-0.04-5.208c-12.67-7.432-25.539-14.533-35.694-20.217C534.739,411.851,535.502,425.887,536.35,441.509z"
		/>
	<path style="fill-rule:evenodd;clip-rule:evenodd;" d="M385.814,796.254c-0.173-12.151-0.488-24.305-0.472-36.458
		c0.01-7.55,2.026-15.841-10.138-16.104c-0.98-0.021-3.386-6.646-2.324-8.889c1.133-2.396,5.715-4.744,8.591-4.521
		c52.311,3.98,100.872-7.559,146.091-33.775c87.811-50.912,136.741-156.171,118.684-255.494
		C627.17,336.097,545.25,254.638,441.495,238.857c-20.337-3.093-41.319-1.905-61.976-3.17c-2.544-0.155-7.218-3.96-6.936-4.913
		c0.991-3.348,3.639-6.244,5.804-9.208c2.216-3.032,6.569-5.91,6.616-8.909c0.495-31.741,0.121-63.496,0.658-95.236
		c0.048-2.832,4.806-5.585,7.375-8.376c2.285,2.717,6.518,5.405,6.559,8.155c0.469,31.477,0.077,62.968,0.669,94.441
		c0.056,2.958,4.896,7.835,8.113,8.391c16.978,2.934,34.118,5.067,51.277,6.697c2.965,0.282,8.392-2.563,9.128-5.019
		c10.198-33.926,19.388-68.155,29.896-101.982c1.663-5.355,8.579-9.099,13.067-13.587c1.54,1.396,3.08,2.792,4.62,4.188
		c-10.869,38.062-21.923,76.075-32.248,114.283c-0.794,2.934,2.623,8.938,5.683,10.595c9.531,5.161,20.646,7.683,29.623,13.536
		c10.938,7.13,15.657,4.87,22.03-6.03c24.189-41.372,49.265-82.243,74.831-122.791c3.862-6.129,12.07-9.549,18.271-14.223
		c1.452,1.54,2.904,3.079,4.357,4.618c-12.54,20.623-25.045,41.266-37.626,61.864c-17.392,28.478-34.956,56.852-52.017,85.522
		c-1.242,2.086-0.165,7.63,1.768,9.173c29.798,23.791,29.869,23.696,57.293-2.768c22.339-21.557,44.569-43.229,67.234-64.442
		c1.958-1.833,6.803-0.616,10.307-0.816c0.006,3.695,1.631,9.011-0.225,10.844c-29.268,28.892-59.09,57.227-88.355,86.119
		c-2,1.977-2.141,8.316-0.475,10.976c4.319,6.9,11.642,12.171,15.039,19.365c8.063,17.073,17.388,14.635,31.911,7.041
		c82.615-43.198,165.784-85.353,248.963-127.472c3.142-1.588,8.346,0.848,12.586,1.409c-2.079,3.822-3.175,9.531-6.387,11.19
		c-86.375,44.607-173.004,88.729-259.358,133.384c-2.682,1.388-4.604,7.956-3.813,11.417c1.372,6.03,6.563,11.268,7.643,17.283
		c3.644,20.324,14.795,20.067,31.604,15.155c33.128-9.677,66.867-17.302,100.457-25.337c2.35-0.562,5.568,2.473,8.379,3.836
		c-1.751,3.377-2.868,9.123-5.35,9.779c-38.534,10.189-77.272,19.602-115.836,29.685c-2.39,0.624-3.901,5.223-5.39,8.189
		c-0.434,0.863,0.709,2.452,0.999,3.74c7.087,31.387,7.083,31.398,39.911,31.385c75.857-0.035,151.716-0.152,227.573,0.166
		c2.896,0.012,5.775,4.191,8.662,6.43c-2.896,2.487-5.782,7.134-8.69,7.147c-84.107,0.364-168.218,0.178-252.327,0.604
		c-2.937,0.013-7.899,5.085-8.382,8.319c-1.478,9.882,0.206,20.344-1.998,29.977c-2.895,12.646,1.57,16.54,13.444,19.539
		c33.732,8.522,67.094,18.503,100.472,28.341c2.019,0.595,4.729,6.267,3.965,7.323c-1.97,2.727-6.322,6.442-8.652,5.815
		c-34.641-9.314-69.034-19.549-103.734-28.631c-3.359-0.879-10.165,3.381-12.298,7.029c-12.33,21.104-2.02,30.156,18.043,39.494
		c84.288,39.222,167.703,80.293,251.154,121.257c5.131,2.517,7.833,9.923,11.664,15.055c-1.423,1.306-2.845,2.61-4.267,3.916
		c-13.26-6.31-26.556-12.547-39.774-18.943c-80.826-39.105-161.601-78.319-242.608-117.055c-2.684-1.282-9.446,0.976-11.251,3.635
		c-6.669,9.818-12.512,20.281-17.596,31.008c-1.243,2.621,0.379,9.05,2.716,10.504c26.607,16.545,53.71,32.298,80.329,48.83
		c2.294,1.425,2.073,6.854,3.02,10.425c-3.552,0.504-8.075,2.667-10.509,1.259c-27.358-15.824-54.266-32.422-81.704-48.102
		c-2.97-1.697-9.875-0.462-12.626,1.991c-13.424,11.968-26.298,24.583-38.736,37.568c-2.15,2.244-3.094,8.56-1.499,10.976
		c21.147,32.059,42.849,63.752,64.413,95.537c-5.855,0-11.713,0-17.568,0c-19.732-29.095-39.332-58.279-59.463-87.098
		c-1.523-2.177-7.578-3.403-10.288-2.234c-18.205,7.853-36.129,16.359-53.977,24.992c-2.185,1.059-5.161,4.56-4.761,6.211
		c4.699,19.455,9.973,38.773,15.094,58.129c-5.324,0-10.647,0-15.971,0c-2.782-11.513-6.67-22.894-8.091-34.567
		c-2.233-18.397-8.737-26.632-28.979-19.672c-13.707,4.71-35.359,1.075-41.395,9.605c-7.196,10.17-1.5,29.355-1.39,44.634
		C395.397,796.254,390.605,796.254,385.814,796.254z"/>
	<path style="fill-rule:evenodd;clip-rule:evenodd;fill:#FFFFFF;" d="M496.014,796.254c-5.121-19.355-10.395-38.674-15.094-58.129
		c-0.399-1.651,2.576-5.152,4.761-6.211c17.848-8.633,35.771-17.14,53.977-24.992c2.71-1.169,8.765,0.058,10.288,2.234
		c20.131,28.818,39.73,58.003,59.463,87.098C571.61,796.254,533.812,796.254,496.014,796.254z"/>
	<path style="fill-rule:evenodd;clip-rule:evenodd;fill:#FFFFFF;" d="M400.188,796.254c-0.11-15.278-5.806-34.464,1.39-44.634
		c6.036-8.53,27.688-4.896,41.395-9.605c20.242-6.96,26.746,1.274,28.979,19.672c1.42,11.674,5.309,23.055,8.091,34.567
		C453.424,796.254,426.806,796.254,400.188,796.254z"/>
	<path style="fill-rule:evenodd;clip-rule:evenodd;" d="M436.813,544.411c-19.809,10.417-38.304,15.848-57.803,5.753
		c-2.84-1.47-6.679-5.449-6.386-7.825c4.55-37.13,9.639-74.198,15.007-111.223c0.177-1.22,5.346-3.229,6.903-2.423
		c2.749,1.425,6.401,4.745,6.392,7.257c-0.118,28.811-0.228,57.652-1.746,86.412c-0.579,10.97,3.15,15.05,13.324,16.414
		C420.279,539.818,427.864,542.277,436.813,544.411z"/>
	<path style="fill-rule:evenodd;clip-rule:evenodd;" d="M577.471,373.319c-44.04-12.007-83.759-8.444-120.051,29.803
		c9.978-2.784,15.743-4.394,18.346-5.12c-0.896,13.555-1.804,27.274-2.868,43.379c-11.732-6.587-25.638-14.289-39.31-22.383
		c-0.661-0.39,0.411-4.332,1.214-6.414c16.551-42.859,70.129-63.653,122.16-47.298C563.951,367.483,570.642,370.618,577.471,373.319
		z"/>
	<path style="fill-rule:evenodd;clip-rule:evenodd;" d="M483.028,620.929c-33.777,0-67.555,0.11-101.329-0.188
		c-3.004-0.023-8.529-2.655-8.554-4.146c-0.13-7.92,1.121-15.859,1.894-23.793c3.969,1.213,9.054,1.278,11.713,3.833
		c11.344,10.908,21.245,10.574,32.164-0.799c2.4-2.499,9.422-3.069,13.041-1.543c17.5,7.379,34.564,15.775,51.783,23.812
		C483.501,619.044,483.265,619.988,483.028,620.929z"/>
	<path style="fill-rule:evenodd;clip-rule:evenodd;" d="M466.399,631.881c-22.954,10.62-40.734,19.334-58.94,27.054
		c-8.573,3.636-36.121-13.192-35.15-20.843c0.287-2.244,3.269-5.921,5.057-5.944C405.18,631.77,433.002,631.881,466.399,631.881z"/>
	<path style="fill-rule:evenodd;clip-rule:evenodd;" d="M500.056,445.541c-5.611-8.271-14.505-15.984-16.053-24.951
		c-2.243-12.992,7.435-21.446,20.785-21.515c13.291-0.068,23.256,8.453,21.526,21.163c-1.221,8.957-10.419,16.844-16.055,25.21
		C506.858,445.478,503.458,445.51,500.056,445.541z"/>
	<path style="fill-rule:evenodd;clip-rule:evenodd;" d="M536.35,441.509c-0.848-15.622-1.611-29.658-2.435-44.857
		c10.155,5.684,23.023,12.785,35.694,20.217c0.827,0.484,0.859,4.71,0.04,5.208C557.886,429.207,545.914,435.997,536.35,441.509z"/>
</g>
</svg>
